<svg id="Calque_1" data-name="Calque 1" xmlns="http://www.w3.org/2000/svg" viewBox="0 0 113.23 177.4">
  <defs>
    <clipPath id="clip-path" transform="translate(-10.84 -3.75)">
      <path class="cls-1" d="M31.7 40a40.12 40.12 0 0 1 27.56-16.14A40.19 40.19 0 0 0 86.83 7.68l17.7 30.17S93 53.24 76.84 54 49.4 70.2 49.4 70.2Z"/>
    </clipPath>
    <style>
      .cls-1,.cls-10,.cls-8,.cls-9{fill:none;stroke:#002169;stroke-linejoin:round}.cls-1{stroke-width:.84px}.cls-2{fill:#e30613}.cls-3{clip-path:url(#clip-path)}.cls-4{fill:#e20613}.cls-5{fill:#fff}.cls-6{fill:#002169}.cls-7{fill:#f9cbb9}.cls-8{stroke-width:1.01px}.cls-9{stroke-width:2.36px}.cls-10{stroke-linecap:round;stroke-width:2.03px}
    </style>
  </defs>
  <path class="cls-2" d="M29.31 140.16c0-24.9 13.92-41 39.59-41 25.06 0 39.6 16.09 39.6 41s-13.92 41-39.6 41c-25.06-.01-39.59-16.1-39.59-41Z" transform="translate(-10.84 -3.75)"/>
  <g class="cls-3">
    <path class="cls-4" transform="rotate(149.6 81.957 24.592)" d="M76.05 6.24h21.64v43.4H76.05z"/>
    <path class="cls-5" transform="rotate(149.6 63.184 35.491)" d="M57.28 17.14h21.64v43.4H57.28z"/>
    <path class="cls-6" transform="rotate(149.6 44.404 46.512)" d="M38.49 28.16h21.64v43.4H38.49z"/>
  </g>
  <path class="cls-1" d="M31.7 40a40.12 40.12 0 0 1 27.56-16.14A40.19 40.19 0 0 0 86.83 7.68l17.7 30.17S93 53.24 76.84 54 49.4 70.2 49.4 70.2Z" transform="translate(-10.84 -3.75)"/>
  <path class="cls-7" d="M75.91 107.72c.94 1.28.91 1.68 2.23 3.51.43.61 1.95.24 2.42-.59a5.19 5.19 0 0 0 .4-2.8l-.27-6.06-.12-2.88a4.29 4.29 0 0 0-.57-2.45 4.23 4.23 0 0 0-2-1.18l-8.54-3.22a10.24 10.24 0 0 0-3.15-.81 7.68 7.68 0 0 0-4.39 1.49c-4.31 2.84-4.69 8.38-7.28 12.84s-4 7.63-4.72 8.59c-1.12 1.49-1.19 3.5-1.14 5.37.18 8.24-1.8 17.86.82 25.67a23.7 23.7 0 0 1 1 10.62 57.61 57.61 0 0 1-1.71 7.83 66.4 66.4 0 0 0-3.36 10.73c4.82 3.37 15.68 6.63 22.59 6.22.53-6.12 3.12-11.34 6-16.77 1.9-3.58 5.26-6.83 6.8-10.59 2.31-5.62 2.42-9.4.62-15.2-.32-1-.82-2.3-1.39-3.68s-1.1-2.6-1.67-4a39.2 39.2 0 0 1-2.5-7.35v-.2c-.62-4 .31-8.13.16-12.21-.02-.86-.14-1.86-.23-2.88Z" transform="translate(-10.84 -3.75)"/>
  <path class="cls-7" d="M76 123.06a39.2 39.2 0 0 0 2.5 7.35 20.09 20.09 0 0 0 3.68-2.63L88 123a2.58 2.58 0 0 0 .64-.68 2.72 2.72 0 0 0 .24-1.3l.06-3.53v-.91a4.48 4.48 0 0 0-.34-2.21 4.59 4.59 0 0 0-.87-1.06l-1.85-1.83a16.93 16.93 0 0 1-2.79 5.46q-2.13 3-4.44 5.94a2 2 0 0 1-.69.61 1.61 1.61 0 0 1-1.06 0 5.21 5.21 0 0 1-.9-.43Z" transform="translate(-10.84 -3.75)"/>
  <path class="cls-7" d="M76 122.86v.2a5.21 5.21 0 0 0 .88.35 1.61 1.61 0 0 0 1.06 0 2 2 0 0 0 .69-.61q2.31-2.89 4.44-5.94a16.93 16.93 0 0 0 2.79-5.46 6.72 6.72 0 0 0 0-3.42c-.73-2.66-3.13-4.32-5.2-6.23l.27 6.06a5.19 5.19 0 0 1-.4 2.8c-.47.83-2 1.2-2.42.59-1.32-1.83-1.29-2.23-2.23-3.51.13 1 .21 2 .24 2.93.18 4.11-.75 8.21-.12 12.24ZM78.52 130.41c.57 1.35 1.15 2.7 1.67 4a50.47 50.47 0 0 0 8.64-2.75 4.07 4.07 0 0 0 1.71-1.08 4.13 4.13 0 0 0 .65-2c.33-2.24.65-4.47 1-6.71A3 3 0 0 0 92 120a3 3 0 0 0-.91-.93c-.72-.55-1.46-1.08-2.2-1.6l-.02 3.53a2.72 2.72 0 0 1-.24 1.3 2.58 2.58 0 0 1-.63.7l-5.79 4.83a20.09 20.09 0 0 1-3.69 2.58Z" transform="translate(-10.84 -3.75)"/>
  <path class="cls-8" d="M75.92 107.72c.94 1.28.91 1.68 2.23 3.51.43.61 1.95.24 2.42-.59a5.19 5.19 0 0 0 .4-2.8l-.27-6.06-.12-2.88a4.29 4.29 0 0 0-.58-2.45 4.23 4.23 0 0 0-2-1.18l-8.54-3.22a10.24 10.24 0 0 0-3.15-.81 7.68 7.68 0 0 0-4.39 1.49c-4.31 2.84-4.69 8.38-7.28 12.84s-4 7.63-4.72 8.59c-1.12 1.49-1.19 3.5-1.14 5.37.18 8.24-1.8 17.86.82 25.67a23.7 23.7 0 0 1 1 10.62 57.61 57.61 0 0 1-1.71 7.83 66.4 66.4 0 0 0-3.36 10.73c4.82 3.37 15.68 6.63 22.59 6.22.53-6.12 3.12-11.34 6-16.77 1.9-3.58 5.26-6.83 6.8-10.59 2.31-5.62 2.42-9.4.62-15.2-.32-1-.82-2.3-1.39-3.68s-1.1-2.6-1.67-4a39.2 39.2 0 0 1-2.5-7.35v-.2c-.62-4 .31-8.13.16-12.21 0-.91-.11-1.91-.24-2.93a34.12 34.12 0 0 0-.7-3.8c-.64-2.56-2.28-3.24-3.81-3.21-1.79 0-3.33 1.44-4 3.74a37 37 0 0 0-.93 5.85c.18 5.13.46 7.51-.17 12.6s-2.57 10.26-6.48 13.6" transform="translate(-10.84 -3.75)"/>
  <path class="cls-8" d="M80.7 101.78c2.07 1.91 4.47 3.57 5.2 6.23a6.72 6.72 0 0 1 0 3.42 16.93 16.93 0 0 1-2.79 5.46q-2.13 3-4.44 5.94a2 2 0 0 1-.69.61 1.61 1.61 0 0 1-1.06 0 5.21 5.21 0 0 1-.88-.35" transform="translate(-10.84 -3.75)"/>
  <path class="cls-8" d="m85.88 111.43 1.85 1.83a4.59 4.59 0 0 1 .87 1.06 4.48 4.48 0 0 1 .34 2.21v.91l-.07 3.56a2.72 2.72 0 0 1-.24 1.3 2.58 2.58 0 0 1-.63.7l-5.79 4.83a20.09 20.09 0 0 1-3.68 2.63h-.07" transform="translate(-10.84 -3.75)"/>
  <path class="cls-8" d="M88.93 117.44c.74.52 1.48 1 2.2 1.6a3 3 0 0 1 .87.96 3 3 0 0 1 .12 1.84c-.32 2.24-.64 4.47-1 6.71a4.13 4.13 0 0 1-.65 2 4.07 4.07 0 0 1-1.71 1.08 50.47 50.47 0 0 1-8.64 2.75" transform="translate(-10.84 -3.75)"/>
  <path class="cls-9" d="m20.67 35.59 36.92 63.02"/>
  <path class="cls-10" d="m108.62 26.05 4.06-1.68M109.7 30.54l13.35 1.29M109.07 37.48l4.81 3.62M23.89 34.68 17.42 32M21.53 40.23l-9.68 1.25M23.11 45.24Q20.7 47.57 18.44 50" transform="translate(-10.84 -3.75)"/>
  <path class="cls-7" d="m46.34 173.29-.45 1.9a36.2 36.2 0 0 0 11.23 4.63 39.12 39.12 0 0 0 10.45 1.32l.28-2.24Z" transform="translate(-10.84 -3.75)"/>
</svg>
